<?xml version="1.0" encoding="UTF-8"?><svg id="Emblem" xmlns="http://www.w3.org/2000/svg" viewBox="0 0 310.15 288"><defs><style>.cls-1{fill:none;stroke-width:1.5px;}.cls-1,.cls-2,.cls-3,.cls-4,.cls-5{stroke-miterlimit:10;}.cls-1,.cls-2,.cls-3,.cls-5{stroke:#000;}.cls-6,.cls-3{fill:#010101;}.cls-7{fill:#005b85;}.cls-8{fill:#0073ae;}.cls-9,.cls-5{fill:#e8a822;}.cls-10,.cls-2,.cls-4{fill:#fff;}.cls-11{fill:#83d2e5;}.cls-12{fill:#aa1e31;}.cls-13{fill:#c78b2b;}.cls-14{fill:#acc6bb;}.cls-15{fill:#231f20;}.cls-2{stroke-width:2px;}.cls-3{stroke-width:.25px;}.cls-4{stroke:#a41e21;}</style></defs><g id="Background_Spheres"><circle class="cls-12" cx="155.08" cy="144" r="144"/><circle class="cls-14" cx="155.07" cy="144.13" r="137.35"/><circle cx="154.84" cy="144.05" r="119.82"/></g><g id="Mission_Emblems"><g id="Stars"><polygon class="cls-15" points="57.55 222.31 56.33 224.8 57.69 227.21 54.94 226.82 53.07 228.86 52.59 226.13 50.07 224.98 52.52 223.68 52.84 220.92 54.83 222.85 57.55 222.31"/><polygon class="cls-15" points="84.75 247.53 84.3 250.26 86.31 252.18 83.57 252.61 82.36 255.1 81.11 252.63 78.36 252.26 80.33 250.3 79.84 247.57 82.3 248.84 84.75 247.53"/><polygon class="cls-15" points="118.11 263.87 118.61 266.6 121.14 267.73 118.7 269.05 118.4 271.81 116.4 269.9 113.68 270.47 114.88 267.97 113.5 265.56 116.25 265.93 118.11 263.87"/><polygon class="cls-15" points="154.96 269.34 156.19 271.82 158.93 272.22 156.95 274.16 157.41 276.89 154.96 275.6 152.5 276.89 152.97 274.16 150.99 272.22 153.73 271.82 154.96 269.34"/><polygon class="cls-15" points="191.88 263.71 193.75 265.75 196.5 265.37 195.13 267.78 196.35 270.27 193.63 269.72 191.64 271.65 191.32 268.89 188.87 267.59 191.39 266.44 191.88 263.71"/><polygon class="cls-15" points="225.25 247.52 227.63 248.96 230.15 247.82 229.52 250.52 231.39 252.57 228.63 252.8 227.25 255.21 226.18 252.66 223.46 252.09 225.56 250.28 225.25 247.52"/><polygon class="cls-15" points="252.28 222.24 255 222.78 256.99 220.85 257.31 223.6 259.77 224.9 257.25 226.06 256.77 228.79 254.89 226.75 252.15 227.15 253.5 224.73 252.28 222.24"/></g><g id="Mercury"><path class="cls-15" d="M48.08,210.52c.46-1.36,.3-2.29,.3-2.29,.99,.9,1.42,1.03,1.42,1.03l.72-.43c-.77-.53-1.1-.84-1.63-1.31-.53-.48-1.04-1.37-1.04-1.37-.57-.96-.63-1.37-.76-1.81-.13-.44-.32-1.82-.32-1.82l-.72,.41c-.05,.9,.17,1.55,.17,1.55,0,0-.73-.51-1.9-.8-1.17-.29-2.3-.07-3.15,.43s-1.51,1.29-1.73,2.74c-.23,1.44,.49,3.03,.49,3.03l-1.07,.64-1.36-2.3-.95,.56,1.36,2.3-1.28,.76,.69,1.17,1.28-.76,1.36,2.29,.95-.56-1.36-2.29,1.07-.64s.99,1.43,2.63,1.98c1.64,.54,2.72-.1,3.02-.28s1.34-.86,1.8-2.22Zm-5.2,1.04c-.94-.35-1.64-.87-1.64-.87l.76-.45c.59-.35,.8-.38,1.09-.42,.3-.05,.53,0,.53,0l1.84,.26,1.01-.6-2.37-3.99-1.43,.85,.3,.51,.59-.35,1.69,2.85c-1.02-.21-1.59-.4-2.23-.59-.65-.19-1.6,.25-1.6,.25l-.88,.52c-.12-1.08-.05-1.4,.07-2.07,.12-.66,.61-1.42,1.33-1.85s1.58-.53,2.62-.47c1.04,.06,1.99,.45,1.99,.45,0,0,.17,.52,.48,1.04s.54,.75,.54,.75c-.15,.83-.25,1.09-.64,2.07-.4,.98-1.17,1.65-1.63,1.92s-1.48,.55-2.41,.2Z"/></g><g id="Gemini"><rect class="cls-15" x="64.48" y="234.73" width="12.19" height="2.02" transform="translate(187.24 19.08) rotate(44.97)"/><rect class="cls-15" x="57.68" y="241.54" width="12.19" height="2.02" transform="translate(190.06 25.87) rotate(44.97)"/><path class="cls-15" d="M67.16,232.77s.22,1.21-2.63,4.01c-1.87,1.84-2.14,2.16-4.24,1.87l2.3,2.25s1.58-.16,3.77-2.39,2.49-3.58,2.49-3.58l-1.7-2.16Z"/><path class="cls-15" d="M73.8,239.36s-1.24-.35-4.18,2.36c-1.29,1.18-2.29,1.99-2.14,4.11l-2.1-2.44s.26-1.56,2.63-3.61,3.74-2.25,3.74-2.25l2.05,1.83Z"/><polygon class="cls-15" points="63.57 236.32 63.29 235.17 62.18 234.76 63.18 234.13 63.24 232.95 64.14 233.71 65.28 233.4 64.84 234.49 65.49 235.48 64.31 235.4 63.57 236.32"/><polygon class="cls-15" points="69.94 246.2 69.53 244.87 68.2 244.46 69.33 243.65 69.31 242.26 70.43 243.09 71.75 242.64 71.3 243.96 72.14 245.07 70.75 245.06 69.94 246.2"/></g><g id="Apollo"><path class="cls-15" d="M97.53,267.42l2.34,1.15,4.02-7.9s1.25-1.89-.54-4.42-5.68-2.3-7.06,.09-1.92,6.51-4.5,6.2-1.08,2.29,.87,2.25c1.76-.03,2.9-1.81,3.73-3.37l2.01-4.19s.98-1.21,2.45-.35,1.21,1.91,.92,2.46-4.24,8.07-4.24,8.07Z"/><rect class="cls-15" x="91.56" y="260.4" width="13.7" height="2.52" rx=".61" ry=".61" transform="translate(123.78 -16.74) rotate(25.82)"/></g><g id="Skylab"><rect class="cls-15" x="132.55" y="272.78" width="3.65" height="5.81" transform="translate(46.52 -18.15) rotate(9.34)"/><rect class="cls-15" x="133.79" y="267.82" width="2.79" height="5.49" transform="translate(45.7 -18.35) rotate(9.34)"/><rect class="cls-15" x="134.74" y="264.51" width="1.39" height="9.53" transform="translate(-131.58 129.45) rotate(-35.66)"/><rect class="cls-15" x="134.74" y="264.51" width="1.39" height="9.53" transform="translate(-4.39 536.28) rotate(-125.66)"/><rect class="cls-15" x="135.95" y="274.39" width="4.04" height=".57" transform="translate(46.4 -18.75) rotate(9.34)"/><rect class="cls-15" x="137.17" y="274.49" width="2.48" height="4.77" transform="translate(46.76 -18.79) rotate(9.34)"/></g><g id="Space_Shuttle"><path class="cls-6" d="M175.36,278.97l1.57-.72-.09-.65,3.55-1.06-.08-.57c-.1-.72-.56-1.07-.56-1.07,0,0-2.1-1.35-2.63-1.71s-.78-1.07-.78-1.07l-1.44-4.42s-.89-2.62-1.5-2.54l-.27,.04c-.61,.09-.73,2.85-.73,2.85l-.15,4.65s-.05,.75-.45,1.24-2.05,2.37-2.05,2.37c0,0-.34,.46-.24,1.18l.08,.57,3.7,.03,.09,.65,1.71,.26,.24,.82,.03-.86Z"/></g><g id="ISS"><rect class="cls-15" x="204.4" y="257.3" width="1.41" height="11.39" transform="translate(-93.21 113.86) rotate(-25.49)"/><rect class="cls-15" x="206.48" y="256.3" width="1.41" height="11.39" transform="translate(-92.58 114.66) rotate(-25.49)"/><rect class="cls-15" x="213.53" y="252.94" width="1.41" height="11.39" transform="translate(-90.45 117.37) rotate(-25.49)"/><rect class="cls-15" x="207.34" y="259.51" width="6.63" height="1.53" transform="translate(354.94 -41.88) rotate(64.51)"/><rect class="cls-15" x="207.23" y="256.3" width="3.9" height="1.78" transform="translate(-90.32 115.05) rotate(-25.49)"/><rect class="cls-15" x="210.51" y="263.1" width="3.72" height="1.55" transform="translate(-92.88 117.07) rotate(-25.49)"/><rect class="cls-15" x="215.66" y="251.93" width="1.41" height="11.39" transform="translate(-89.81 118.19) rotate(-25.49)"/><rect class="cls-15" x="204.07" y="259.75" width="13.34" height="1.13" transform="translate(-91.51 116.03) rotate(-25.49)"/></g><g id="Commercial_Crew"><path class="cls-3" d="M241.71,248.94s.57-1.14,.83-3.08,.19-4.35,.19-4.35c0,0-.12-2.46-.32-3.86s-.55-3.33-.55-3.33l.29-.27,.46,1.98s.87,3.68,1.35,6.75,.63,3.52,.63,3.52l-2.86,2.64Z"/><path class="cls-3" d="M245.7,245.26s-1.25-4.24-1.59-5.56-1.54-5.79-1.54-5.79l.24-.08,.23,.36s.56,1.85,1.54,3.97c.98,2.12,2.59,4.03,3.56,4.86l-2.43,2.24Z"/><path class="cls-3" d="M241.29,236.24s-1.12,.1-2.43,.81-1.81,1.75-.89,2.92,3.77,1.62,6.18,1.31,4.44-1.14,4.77-2.61-1.68-2.28-2.18-2.37-.78-.16-.88-.21-.47-.21-.7-.19-.52,.02-.58,.35,.43,.53,.54,.55,.36,.02,.44,.01,.56-.03,1.07,.06,1.26,.32,1.75,.96-.23,1.6-1.7,2.19-3.57,.93-6.03,.57c-1.4-.2-2.15-.79-2.4-1.29-.21-.42-.27-.97,.34-1.49,.98-.83,1.84-.98,2.76-1.16l-.05-.42Z"/><path class="cls-3" d="M241.86,233.25l-.74-.27s-.06,.03-.03,.05l.63,.5-1.24,.56s-.02,.06,.02,.06l1.35-.15-.28,.76s.03,.06,.05,.03l.5-.61,.56,1.21s.06,.02,.06-.02l-.15-1.33,.78,.29s.06-.03,.03-.05l-.65-.52,1.23-.56s.02-.06-.02-.06l-1.34,.16,.29-.76s-.03-.06-.05-.03l-.51,.64-.93-2.47s-.07-.02-.06,.02l.48,2.57Z"/></g><g id="Artemis"><path class="cls-6" d="M270.34,211.41c-2.72,4.85-1.56,8.91-1.56,8.91,0,0-2.53-4.36,.37-9.52s8.1-5.56,8.1-5.56c0,0-4.28,1.48-6.91,6.16Z"/><path class="cls-6" d="M265.2,208.04s-.81,3.43-.78,5.01c.03,1.57,.08,4.64,3.01,4.82,0,0-.49-2.07,.08-4.58l-2.01-2.49,.49-2.67-.8-.09Zm1.7,6.96s-.38,.03-.72-.14-.95-.67-.84-2.41c0,0,1.18,1.71,1.56,2.56Z"/><path class="cls-6" d="M272.6,206.37s-.69,.08-.95,.11c-.26,.02-.47,.02-.47,.02l-4.95-.26c.03-.79-.08-1.6-.18-2.06-.1-.47-.46-1.28-1.18-1.1-.66,.17-.98,.72-.98,.72l.16,.04c.64-.62,1.1-.41,1.29,.48,.16,.77,.13,1.65,.12,1.88l-4.76-.25s-.2-.03-.28,.12,.05,.29,.05,.29l3.7,4.52,.28-1.37-1.79-2.26,7.75,.81c.08,0,.1-.02,.1-.02,1.1-1.11,2.06-1.61,2.11-1.63s0-.03,0-.03Z"/><path class="cls-6" d="M261.83,205.48c0-.07,0-.13,0-.2,.09-.83,.85-1.44,1.7-1.35s1.45,.83,1.36,1.66c0,.02,0,.05,0,.07l-3.06-.18Z"/></g></g><g id="Earth"><path class="cls-11" d="M241.94,225.74c-21.66,23.45-52.66,38.13-87.1,38.13s-65.78-14.85-87.46-38.52c0,0,19.36-19.09,37.37-26.27,18.01-7.18,28.82-11.31,49.28-11.31s39.63,5.72,56.59,14.31c16.96,8.58,31.32,23.67,31.32,23.67Z"/><path class="cls-8" d="M239.02,228.79c-21.45,21.43-51.06,35.08-83.78,35.08s-62.44-13.3-83.9-34.8c0,0,19.08-16.94,35.61-22.82s26.86-9.78,46.97-9.78,39.74,4.74,52.77,10.99c13.03,6.25,32.32,21.32,32.32,21.32Z"/><path class="cls-7" d="M236.21,231.51l-3.82-4.69s-1.48-1.8-3.13-1.8-3.02,2.76-5.3,2.76-6.14-3.13-6.14-3.13c0,0-1.33-1.48-2.07-.9s0,4.45,0,4.45c0,0,.74,2.5,.16,3.32s-1.75,.98-1.75,.98c0,0,.11,1.17-1.01,1.32s-7.36-1.38-11.07-3.29-8.29-4.7-6.99-10.01,6.89-6.15,9.64-5.72,5.25,1.8,5.99,.58,.32-1.48-2.07-2.17-10.01-2.76-12.77-4.61-5.25-4.34-5.25-4.34c0,0-3.13,.11-5.78-1.17s-4.45-3.29-5.83-3.71-3.92-1.06-3.92-1.06l-7.26-1.09-5.82-.48-8.12-.25-8.19,.24-3.41,.26-7.46,.99-6.4,1.34-5.85,1.61s8.58-.39,11.2,1.04,9.22-1.75,9.22-1.75l7.31,.16s-.95,4.45-8.58,4.53c-7.63,.08-13.59,.8-13.03,2.03s-2.89-.76-2.89-.76c0,0,.11-.79-1.4-1.51s-3.26-.48-3.66-1.27,0-1.9,0-1.9l-4.2,1.38-4.93,1.72s3.65,2.07,5.48,1.51-4.85,.24-4.93,1.27,4.29-.24,4.05,1.27-2.15,.72-1.99,1.99-.16,2.07-.79,2.54-.23,2.78-1.82,2.86-4.3-2.43-4.22-3.56c.06-.82-2.17,1.58-3.41,2.96-.34,.38-.1,.98,.41,1.02l4.75,.44s-.24,1.11-3.26,2.3-6.04,3.34-7.79,5.17-8.58,2.3-12,4.69-6.34,7.7-6.34,7.7l4.86,4.11,3.09,2.2,3.39,2.25s.88-2.9,1.28-4.09,2.94-.4,3.18-1.03-.72-3.1-.72-3.1c0,0,.72,1.03,2.3,.4s3.89-2.46,6.6-2.46,4.85-.48,5.09-1.19,4.05,1.03,4.05,1.03l94.98,8.82s1.03-3.26,2.94-3.74,4.21,.32,5.72-1.59,3.42-3.81,4.93-4.21,4.21-.24,5.01-1.51,2.94-1.99,4.13-2.07,3.58,2.62,3.58,2.62l2.01-1.69Z"/><path class="cls-10" d="M199.95,224.64c-3.19,.38-3.5,.68-3.87,3.87-.38-3.19-.68-3.5-3.87-3.87,3.19-.38,3.5-.68,3.87-3.87,.38,3.19,.68,3.5,3.87,3.87Z"/><path class="cls-10" d="M198.82,227.38c-2.52-1.99-2.96-1.99-5.48,0,1.99-2.52,1.99-2.96,0-5.48,2.52,1.99,2.96,1.99,5.48,0-1.99,2.52-1.99,2.96,0,5.48Z"/></g><g id="Astronaut_Pin"><path class="cls-13" d="M160.91,57.59h-2.54l4.35,70.88,.67,27.01,1.4,55.85,.75,39.28h-23.78l1.94-45.74,2.13-46.6,.8-19.59,5.22-80.55h-2.5l-6.56,69.33s-3.95,29.54-4.76,36.08-3.79,21.15-6.13,31.23-5.58,21.19-9.37,27.8c-3.79,6.62-10.97,14.75-18.88,18.31-7.91,3.55-13.72,3.64-13.72,3.64,19.23,13.01,40.38,19.34,65.34,19.34s47.67-7.25,66.87-20.33c0,0-12.91-.02-21.95-6.32s-13.89-15.16-17.85-24.92c-3.95-9.77-6.08-18.08-8.26-30.59s-4.57-23.49-4.98-31.8c-.4-8.31-2.06-22.79-2.06-22.79l-6.13-69.54Z"/><path class="cls-9" d="M153.78,53.79l-1.47,72.96-1.63,25.5s-1.72,26.26-2.91,41.43c-1.18,15.17-2.48,22.28-4.3,33.25-1.83,10.98-4.57,20.34-7.75,26.58-3.17,6.24-9.79,6.76-9.79,6.76,9.39,2.35,19.21,3.6,29.32,3.6s19.56-1.24,28.78-3.55c0,0-8.6,1.05-12.29-7.83-3.43-8.27-6.05-15.42-7.51-26.07-1.45-10.65-2.37-22.76-3.18-33.98-.81-11.22-1.69-40.11-1.69-40.11l-1.6-25.42-1.45-73.12h-2.56Z"/><path class="cls-5" d="M164.06,75.95c0-.23,.2-.41,.4-.37,8.14,1.77,13.82,4.81,13.82,9.52,0,6.34-10.34,11.43-23.09,11.43s-23.09-5.09-23.09-11.43c0-4.63,5.51-7.61,13.44-9.43,.21-.05,.41,.13,.41,.37v1.1c0,.17-.11,.32-.27,.36-5.97,1.4-7.97,4.08-7.97,7.16,0,4.53,6.7,6.49,17.48,6.49s17.48-1.96,17.48-6.49c0-3.14-2.16-5.87-8.34-7.25-.15-.03-.27-.18-.27-.36v-1.09Z"/><path class="cls-5" d="M163.96,75.4c0-.23,.2-.41,.4-.37,8.14,1.77,13.82,4.81,13.82,9.52,0,6.34-10.34,11.43-23.09,11.43s-23.09-5.09-23.09-11.43c0-4.63,5.51-7.61,13.44-9.43,.21-.05,.41,.13,.41,.37v1.1c0,.17-.11,.32-.27,.36-5.97,1.4-7.97,4.08-7.97,7.16,0,4.53,6.7,6.49,17.48,6.49s17.48-1.96,17.48-6.49c0-3.14-2.16-5.87-8.34-7.25-.15-.03-.27-.18-.27-.36v-1.09Z"/></g><g id="Planets_and_Stars"><path class="cls-14" d="M204.24,91.1s-11.51-.47-12.97,12.55c-.01,.12,.15,.17,.2,.07,.94-1.88,4.5-7.73,12.77-7.73h.25c8.27,0,11.83,5.84,12.77,7.73,.05,.1,.21,.05,.2-.07-1.46-13.02-12.97-12.55-12.97-12.55h-.25Z"/><path class="cls-12" d="M219.8,65.35s-6.86-.28-7.73,7.39c0,.07,.09,.1,.12,.04,.56-1.11,2.68-4.55,7.61-4.55h.15c4.92,0,7.05,3.44,7.61,4.55,.03,.06,.13,.03,.12-.04-.87-7.67-7.73-7.39-7.73-7.39h-.15Z"/><g id="Stars-2"><g><circle class="cls-8" cx="125.35" cy="119.91" r="1.52"/><circle class="cls-8" cx="186.18" cy="107.25" r="1.52"/><circle class="cls-8" cx="185.83" cy="118.43" r="1.52"/><circle class="cls-8" cx="186.19" cy="67.48" r="1.52"/><circle class="cls-8" cx="184.11" cy="59.99" r="1.52"/><circle class="cls-8" cx="232.24" cy="106.26" r="1.52"/><circle class="cls-8" cx="242.23" cy="91.55" r="1.52"/><circle class="cls-8" cx="116.07" cy="178.44" r="1.4"/><circle class="cls-8" cx="206.77" cy="47.23" r="1.4"/><circle class="cls-8" cx="111.55" cy="185.53" r="1.4"/><circle class="cls-8" cx="68.16" cy="181.47" r="1.4"/><circle class="cls-8" cx="68.32" cy="103.19" r="1.67"/><circle class="cls-8" cx="108.69" cy="71.08" r="1.67"/><circle class="cls-8" cx="114.84" cy="75.03" r="1.57"/><circle class="cls-8" cx="120.4" cy="70.15" r="1.57"/><circle class="cls-8" cx="108.29" cy="47.99" r="1.57"/><circle class="cls-8" cx="131.41" cy="32.03" r="1.57"/></g></g></g><g id="Shooting_Star"><path class="cls-5" d="M83.54,240.25c-.66-.42-2.96-2.33-2.29-2.72,6.92-4.09,37.86-19.83,63.8-30.58,29.48-12.22,47.01-16.94,61.89-19.76,13.15-2.5,22.23-1.95,31.35,.13,.59,.13,.58,1.09,.47,1.45-.13,.42-.63,.59-1.07,.53-2.68-.41-10.8-.98-21.03,.69-11.63,1.89-26.15,6.72-43.85,13.88s-31.34,13.36-46.87,21.07c-14.16,7.03-32.36,17.46-36.04,19.58-.34,.19-2.86-1.76-3.19-1.97l-3.19-2.31Z"/><path class="cls-5" d="M82.97,239.95c-.66-.42-2.96-2.33-2.29-2.72,6.92-4.09,38.43-20.64,64.37-31.39,29.48-12.22,47.01-16.94,61.89-19.76,13.15-2.5,22.23-1.95,31.35,.13,.59,.13,.58,1.09,.47,1.45-.13,.42-.63,.59-1.07,.53-2.68-.41-10.8-.98-21.03,.69-11.63,1.89-26.15,6.72-43.85,13.88s-31.34,13.36-46.87,21.07c-14.16,7.03-32.92,18.27-36.6,20.39-.34,.19-2.86-1.76-3.19-1.97l-3.19-2.31Z"/><path class="cls-5" d="M238.71,220.48c.75,.81,1.61,1.34,2.26,.45,1.68-2.29,4.4-7.56,5.71-12.13,1.67-5.85,2.37-10.98,1.46-14.27-.17-.62-1.39-.07-1.39-.07-.23,.2-.35,.5-.33,.8,.11,1.33-.39,5.02-1.54,9.09-1.34,4.72-2.67,8.44-6.44,14.58-.7,1.13,.26,1.54,.26,1.54Z"/><path class="cls-10" d="M255.07,190.63c-10.14,1.2-11.11,2.17-12.31,12.31-1.2-10.14-2.17-11.11-12.31-12.31,10.14-1.2,11.11-2.17,12.31-12.31,1.2,10.14,2.17,11.11,12.31,12.31Z"/></g><circle class="cls-1" cx="154.84" cy="143.98" r="119.89"/><g id="Banner"><path class="cls-12" d="M153.15,160.71c-21.39,0-41.27,1.52-56.58,4.56-15.31,3.04-30.23,7.46-46.59,13.36-21.99,7.93-30.84,12.57-30.84,12.57l2.42,6.55s-6.44,2.05-9.05,2.05-2.93-1.85-2.93-1.85c0,0-5-11.92-7.71-27.26-.97-5.46-1.7-16.46-1.85-22.75-.05-1.98,0-7.91,0-7.91,.31-6.28,.97-17.27,1.85-22.75,2.28-14.23,7.71-27.26,7.71-27.26,0,0,.33-1.85,2.93-1.85s9.2,2.03,9.2,2.03l-2.5,6.57s8.77,4.65,30.76,12.58c16.36,5.9,31.28,10.32,46.59,13.36s35.19,4.56,56.58,4.56h3.85c21.39,0,41.27-1.52,56.58-4.56,15.31-3.04,30.23-7.46,46.59-13.36,21.99-7.93,30.76-12.58,30.76-12.58l-2.5-6.57s6.6-2.03,9.2-2.03,2.93,1.85,2.93,1.85c0,0,5.43,13.03,7.71,27.26,.88,5.48,1.54,16.46,1.85,22.75,0,0,.05,5.94,0,7.91-.16,6.29-.88,17.28-1.85,22.75-2.71,15.34-7.71,27.26-7.71,27.26,0,0-.33,1.85-2.93,1.85s-9.01-1.97-9.01-1.97l2.42-6.55s-8.89-4.73-30.88-12.65c-16.36-5.9-31.28-10.32-46.59-13.36-15.31-3.04-35.19-4.56-56.58-4.56h-3.85Z"/><path class="cls-13" d="M111.23,197.14l-35.29,5.73,44.09-58.87-46.26-58.2,29.97,1.53s8.25,4.83,12.54,15.83h5.92l-9.77-20.5-54.19-3.15,41.59,63.86-39.2,67.44,57.77-9.12,6.73-23.24-5.54,.87s-1.74,10.48-8.36,17.84Z"/><g id="Flight_Operations"><path class="cls-10" d="M17.81,109.18s-4.72,17.48-4.72,33.56,4.32,36.33,4.32,36.33l6.43-2.69s-4.07-13.76-4.07-28.67h9.86v-6.6h-10.02s.16-12.22,2.93-23.13l8.96,2.85,1.87-6.11-15.56-5.54Z"/><path class="cls-10" d="M37.71,115.67s-3.37,13.33-3.37,28.33,3.37,28.57,3.37,28.57l15.42-4.56-1.63-5.97-9.23,2.71s-1.95-8.9-1.95-20.63,3.42-26.61,3.42-26.61l-6.03-1.85Z"/><path class="cls-10" d="M55.95,120.66s-2.82,9.31-2.82,23.34,2.82,23.69,2.82,23.69l5.32-1.74s-2.61-9.45-2.61-21.77,2.61-21.77,2.61-21.77l-5.32-1.74Z"/><path class="cls-10" d="M71.81,141.89h7.11s.11,9.72,.92,14.01-1.09,6.14-3.04,6.95-5.48,1.3-7.33,1.3-4.96-.99-5.43-7.17c-.71-9.29-.6-11.19-.43-18.52s.92-12.16,2.61-13.47,3.91-1.74,8.8,0,4.78,4.56,4.78,6.19-.38,4.02-.38,4.02l-5-.87,.76-4.45-5.38-.92s-1.52,5-1.52,15.2,1.41,14.93,1.41,14.93l5.7-1.41s-1.19-5.92-1.19-10.86h-2.4v-4.94Z"/><path class="cls-4" d="M85.26,126.31s-2.44,7.85-2.44,18.44,2.04,17.01,2.04,17.01l5.14-.69s-2.06-8.61-2.06-14.24h5.57s.68,7.1,2.07,13.54l4.77-.75s-1.94-6.3-1.94-15.59,2.3-15.41,2.3-15.41l-5.05-.68s-1.86,7.18-1.86,14.01l-5.62,.03s-.47-5.67,1.95-14.96l-4.87-.73Z"/><path class="cls-4" d="M101.25,128.74l-.84,4.48,5.49,.47s-.73,5.74-.73,10.84,1.64,13.98,1.64,13.98l4.62-.72s-1.46-7.36-1.46-13.26,.79-10.34,.79-10.34l5.35,.33,.21-3.81-15.07-1.98Z"/><path class="cls-10" d="M132.87,132.07c-5.62,0-5.98,2.94-6,3.16,0,.01,0,.02,0,.03v17.56s0,.02,0,.03c.02,.23,.38,3.33,6.11,3.33s5.89-3.77,5.89-3.77v-17.14s0-.02,0-.03c-.02-.22-.38-3.16-6-3.16Zm1.92,20.36h-3.62c-.25,0-.44-.2-.44-.44v-15.86c0-.25,.2-.44,.44-.44h3.62c.25,0,.44,.2,.44,.44v15.86c0,.25-.2,.44-.44,.44Z"/><path class="cls-10" d="M150.57,132.6h-7.9v23.05h3.1v-9.65h5.13s2.69,.2,2.69-3.38v-7.09s.04-2.93-3.01-2.93Zm-.41,9.52c0,.25-.21,.46-.46,.46h-3.48c-.25,0-.46-.21-.46-.46v-5.76c0-.25,.21-.46,.46-.46h3.48c.25,0,.46,.21,.46,.46v5.76Z"/><polygon class="cls-10" points="157 132.6 157 155.44 166.53 155.44 166.53 152.43 160.3 152.43 160.3 145.22 166.53 145.22 166.53 141.92 160.26 141.88 160.26 135.68 166.53 135.68 166.53 132.6 157 132.6"/><path class="cls-10" d="M180.35,145.32s1.82-.67,1.82-2.14v-7.98s.08-3.01-2.73-3.01h-9.53s.2,6.03,.2,11.36-.2,12.22-.2,12.22h3.18s.2-4.76,.2-9.81h3.75l2.81,10.22,3.3,.04s-.8-5.11-2.8-10.89Zm-2.26-3.07h-3.98c-.31,0-.57-.25-.57-.57v-5.26c0-.31,.25-.57,.57-.57h3.85c.31,0,.56,.24,.57,.55l.13,5.26c0,.32-.25,.58-.57,.58Z"/><path class="cls-10" d="M200.29,141.92c-1.83-6.44-3.71-10.9-3.71-10.9l-6.35,.28s-.2,7.51-1.83,13.28c-1.63,5.77-3.42,11.65-3.42,11.65l3.95,.16s1.83-5.43,2.73-10.21h5.5s1.62,5.88,1.83,11.35l3.42,.2s-.29-9.36-2.12-15.81Zm-3.81,.78h-3.95c-.14,0-.24-.12-.22-.26l1.32-7.83c.04-.23,.35-.25,.43-.03l2.64,7.83c.05,.14-.06,.29-.21,.29Z"/><path class="cls-10" d="M200.61,130.17l.92,4.26,4.83-.73s1.25,5.27,1.25,11.46-1.9,13.25-1.9,13.25l4.34,.43s1.79-5.97,1.79-15.09-.98-10.81-.98-10.81l5.43-.75-.91-3.98-14.78,1.96Z"/><path class="cls-10" d="M218.09,127.72s2.12,6.76,2.12,17.01-1.79,15.52-1.79,15.52l5.1,.54s1.68-7.65,1.68-16.42-2.12-17.41-2.12-17.41l-5,.76Z"/><path class="cls-10" d="M243.61,125.44c-1.74-2.44-9.83-.49-9.83-.49,0,0-5.15,.85-4.72,6.06,.48,5.86,.6,8.37,.6,12.86s-1.47,16.26,1.14,17.67c3.51,1.9,7.38,2.39,9.39,2.39s5.05-1.03,5.48-4.34c.43-3.31,1.09-9.51,1.09-16.07s-.12-13.82-3.15-18.08Zm-3.48,32.8l-5.54-.98s.92-5.68,.92-13.18-.92-13.06-.92-13.06l5.48-1.45s1.36,6.7,1.36,14.51-1.3,14.16-1.3,14.16Z"/><path class="cls-10" d="M249.15,166.44s3.15-9.52,3.15-22.07-2.93-22.65-2.93-22.65l6.11-1.32s5.95,9.71,8.55,23.68c0,0,.63,.96,.73-.32s-.14-12.72-2.96-25.37l5.65-1.3s3.1,10.49,3.1,27.29-3.1,26.85-3.1,26.85l-5.65-1.63s.05-11.02-2.99-24.43c0,0-.76-1.74-1.09,.11s.81,12.22-2.33,22.48l-6.24-1.3Z"/><path class="cls-10" d="M288.35,125.66l6.3-2.06s-.43-14.17-7.98-12.11-12.71,3.31-12.71,8.09,1.79,9.45,1.79,15.48,.76,12.38,5.97,12.38h7.76s-.22,15.26-2.5,22.48l-6.57-2.06,.81-7.66-6.03-1.85-.98,7.33s-.76,6.95,3.58,8.25,11.29,4.56,14.01,.54,3.26-9.56,3.64-16.83,1.57-12.71-1.47-14.66-11.51-1.95-11.51-1.95c0,0-.43-13.19-2.06-20.69l6.57-2.12s1.19,2.28,1.36,7.44Z"/></g><path class="cls-15" d="M18.23,95.96s1.4-3.68,2.43-5.37c0,0-8.96-2.56-9.82-1.18s7.39,6.54,7.39,6.54Z"/><path class="cls-15" d="M291.94,95.96s-1.4-3.68-2.43-5.37c0,0,8.96-2.56,9.82-1.18s-7.39,6.54-7.39,6.54Z"/><path class="cls-15" d="M17.92,192s1.4,3.68,2.43,5.37c0,0-8.96,2.56-9.82,1.18s7.39-6.54,7.39-6.54Z"/><path class="cls-15" d="M291.9,192.02s-1.4,3.68-2.43,5.37c0,0,8.96,2.56,9.82,1.18s-7.39-6.54-7.39-6.54Z"/></g><g id="Motto"><g><path class="cls-15" d="M43.09,89.78l-9.98-5.37,2.65-4.92c.66-1.22,1.32-1.95,2-2.19,.67-.23,1.57-.05,2.68,.54,1.01,.54,1.64,1.03,1.88,1.46,.25,.43,.25,1.04,0,1.83l.07,.04c.66-1.07,1.61-1.27,2.83-.62l2.2,1.18-1.02,1.89-1.82-.98c-1.03-.55-1.81-.32-2.36,.69l-1.47,2.73,3.36,1.81-1.02,1.89Zm-3.94-4.56l1.46-2.72c.35-.65,.46-1.14,.35-1.48-.12-.34-.52-.69-1.22-1.07-.71-.38-1.22-.54-1.53-.47-.31,.07-.62,.42-.96,1.04l-1.53,2.85,3.43,1.85Z"/><path class="cls-15" d="M41.78,72.87l2.44,1.6,2.91-4.45,1.33,.87-2.91,4.45,2.68,1.75,3.1-4.73,1.51,.99-4.27,6.53-9.48-6.2,4.25-6.49,1.51,.99-3.07,4.69Z"/><path class="cls-15" d="M52.98,59.96l-1.29,1.66c-.09-.06-.15-.1-.19-.13-.53-.35-.93-.49-1.21-.4-.27,.08-.67,.46-1.2,1.15-.63,.8-.96,1.39-1,1.75s.17,.73,.65,1.1c.56,.44,.98,.6,1.25,.49,.27-.11,.87-.71,1.81-1.79,1.11-1.27,1.97-1.99,2.58-2.14s1.4,.15,2.36,.9c1.19,.93,1.78,1.75,1.77,2.48-.01,.73-.62,1.87-1.84,3.44-1.1,1.41-1.99,2.21-2.69,2.4-.7,.2-1.57-.11-2.61-.92l-.33-.25,1.29-1.65,.19,.14c.62,.49,1.09,.68,1.4,.57,.31-.11,.84-.65,1.6-1.62,.59-.76,.89-1.31,.89-1.64,0-.33-.29-.73-.87-1.19-.43-.34-.78-.48-1.05-.43s-.62,.33-1.06,.83l-.79,.89c-1.19,1.35-2.09,2.1-2.7,2.25s-1.43-.17-2.46-.97c-1.04-.81-1.55-1.59-1.53-2.34,.02-.74,.59-1.83,1.69-3.24,1.05-1.34,1.91-2.13,2.6-2.34s1.49,.03,2.41,.75l.34,.27Z"/></g><g><path class="cls-15" d="M63.74,51.37l3.57-3.48,1.59,1.59c1.14,1.17,1.66,2.14,1.55,2.91s-.93,1.9-2.46,3.39c-1.4,1.37-2.55,2.05-3.45,2.04-.9,0-2.02-.71-3.38-2.1-1.73-1.77-2.73-2.98-3.01-3.63-.33-.79-.36-1.51-.1-2.16,.27-.65,.95-1.51,2.05-2.58,1.44-1.41,2.52-2.16,3.24-2.26,.72-.1,1.59,.37,2.62,1.43l-1.56,1.52c-.55-.5-.98-.72-1.31-.65-.33,.07-.9,.51-1.72,1.31-.89,.87-1.35,1.53-1.37,1.99-.02,.46,.36,1.09,1.16,1.91l.79,.82,1.03,1.03c.78,.8,1.4,1.2,1.85,1.19,.45-.01,1.11-.44,1.97-1.28,.84-.82,1.28-1.43,1.33-1.84,.05-.41-.27-.96-.94-1.65l-.32-.34-2.04,1.99-1.11-1.14Z"/><path class="cls-15" d="M68.6,42.23l1.85,2.26,4.11-3.37,1.01,1.23-4.11,3.37,2.03,2.48,4.37-3.59,1.15,1.4-6.03,4.95-7.19-8.76,5.99-4.92,1.15,1.4-4.33,3.56Z"/><path class="cls-15" d="M83.14,33.27l-1.73,1.19c-.07-.08-.12-.14-.15-.18-.4-.5-.75-.74-1.03-.75-.28,0-.78,.24-1.49,.73-.84,.58-1.33,1.04-1.48,1.37-.15,.33-.05,.75,.29,1.24,.41,.59,.75,.87,1.05,.84,.29-.03,1.05-.41,2.26-1.16,1.44-.88,2.48-1.31,3.1-1.27,.63,.04,1.29,.56,1.99,1.56,.86,1.24,1.17,2.2,.94,2.9-.23,.69-1.16,1.6-2.79,2.73-1.47,1.01-2.56,1.51-3.29,1.49-.73-.02-1.46-.58-2.21-1.66l-.24-.34,1.72-1.19,.14,.19c.45,.65,.84,.97,1.17,.96,.33-.01,1-.37,2.01-1.07,.79-.55,1.24-.98,1.34-1.3s-.06-.78-.48-1.39c-.31-.45-.6-.69-.87-.73-.27-.03-.69,.12-1.26,.47l-1.02,.61c-1.53,.93-2.62,1.38-3.25,1.34-.63-.04-1.32-.59-2.05-1.66-.75-1.09-1.01-1.98-.76-2.69,.24-.7,1.1-1.57,2.58-2.59,1.4-.97,2.46-1.46,3.18-1.46,.72,0,1.41,.48,2.08,1.44l.25,.35Z"/><path class="cls-15" d="M88.97,28.21l4.7,8.15-1.86,1.07-4.7-8.15-2.83,1.63-.96-1.67,7.63-4.4,.96,1.67-2.93,1.69Z"/><path class="cls-15" d="M103.4,29l-4.43,2.08,.28,2.27-2.06,.97-1.4-11.86,2.92-1.37,8.27,8.63-2.02,.95-1.58-1.66Zm-1.12-1.22l-4.28-4.51,.76,6.16,3.52-1.65Z"/></g><g><path class="cls-15" d="M113.94,27.11l-3.35-10.82,4.36-1.35,.54-.17c1.46-.45,2.53-.5,3.2-.15,.67,.35,1.23,1.26,1.68,2.72,.45,1.45,.5,2.49,.17,3.11s-1.25,1.17-2.73,1.63l-.47,.16-2.42,.75,1.08,3.5-2.05,.64Zm.43-5.86l2.34-.73c.93-.29,1.49-.58,1.67-.87,.18-.29,.15-.84-.09-1.63-.28-.91-.56-1.45-.84-1.6-.28-.15-.85-.1-1.73,.18l-2.54,.79,1.2,3.87Z"/><path class="cls-15" d="M124.34,14.27l.63,2.85,5.19-1.14,.34,1.55-5.19,1.14,.69,3.13,5.52-1.21,.39,1.77-7.62,1.67-2.43-11.07,7.57-1.66,.39,1.77-5.47,1.2Z"/><path class="cls-15" d="M134.09,21.95l-1.47-11.23,5.54-.73c1.38-.18,2.36-.07,2.94,.34,.58,.41,.96,1.24,1.12,2.49,.15,1.14,.12,1.93-.09,2.38-.21,.45-.7,.81-1.49,1.07v.07c1.27-.09,1.98,.56,2.16,1.94l.32,2.48-2.13,.28-.27-2.05c-.15-1.16-.8-1.66-1.94-1.51l-3.07,.4,.5,3.79-2.13,.28Zm1.4-5.86l3.06-.4c.73-.1,1.2-.29,1.4-.58s.26-.83,.15-1.61c-.1-.8-.28-1.3-.51-1.51-.24-.21-.7-.26-1.4-.17l-3.21,.42,.51,3.86Z"/></g><g><path class="cls-15" d="M170.76,11.72l-.38,2.9,5.27,.68-.2,1.57-5.27-.68-.41,3.18,5.61,.73-.23,1.79-7.74-1,1.45-11.24,7.69,.99-.23,1.79-5.56-.72Z"/><path class="cls-15" d="M189.32,13.26l-4.5,4.63,2.29,6.48-2.46-.54-1.01-3.01c-.15-.46-.29-.93-.42-1.4l-.13-.49-.14-.48h-.03s-.33,.38-.33,.38c-.4,.47-.84,.96-1.33,1.47l-2.18,2.31-2.53-.55,4.88-4.91-2.2-6.1,2.5,.55,.94,2.79c.15,.44,.28,.87,.4,1.3l.12,.43,.12,.43h.03c.13-.15,.23-.26,.29-.34l.29-.34c.25-.3,.55-.63,.9-1.01l2.02-2.15,2.48,.54Z"/><path class="cls-15" d="M196.73,23.17l2.06,.66-.12,.37c-.48,1.5-1.06,2.39-1.75,2.65s-1.97,.1-3.85-.5c-2.13-.68-3.33-1.44-3.6-2.3-.27-.85,.08-2.79,1.04-5.82,.57-1.78,1.27-2.85,2.12-3.2,.84-.35,2.32-.19,4.44,.49,1.54,.49,2.49,1.05,2.86,1.68,.37,.63,.34,1.62-.1,3l-.07,.25-2.06-.66,.09-.28c.23-.71,.24-1.2,.03-1.48-.2-.28-.78-.58-1.73-.88-1.27-.41-2.08-.49-2.44-.26-.35,.23-.78,1.11-1.27,2.65-.66,2.07-.93,3.33-.83,3.78,.11,.45,.79,.88,2.04,1.28,1.02,.32,1.71,.43,2.08,.31,.37-.11,.67-.53,.9-1.25l.14-.49Z"/><path class="cls-15" d="M205.06,20.45l-1.12,2.7,4.9,2.05-.61,1.46-4.9-2.05-1.23,2.96,5.22,2.18-.7,1.67-7.2-3,4.36-10.46,7.16,2.98-.7,1.67-5.17-2.16Z"/><path class="cls-15" d="M215.95,23.38l-4.29,8.37,4.73,2.42-.88,1.71-6.64-3.41,5.17-10.08,1.91,.98Z"/><path class="cls-15" d="M224.97,28.36l-4.92,8.02,4.53,2.78-1.01,1.64-6.36-3.9,5.92-9.66,1.83,1.12Z"/><path class="cls-15" d="M232.37,35.35l-1.72,2.36,4.3,3.12-.93,1.28-4.3-3.12-1.88,2.59,4.57,3.32-1.06,1.46-6.31-4.59,6.66-9.17,6.27,4.56-1.06,1.46-4.53-3.29Z"/><path class="cls-15" d="M248.67,46.29l-7.49,8.51-2.74-2.41,1.68-6.81c.08-.34,.25-.91,.51-1.72l.26-.85,.27-.85-.06-.05-.47,.58-.47,.57-.97,1.13-4.29,4.88-1.61-1.42,7.49-8.51,2.74,2.41-1.58,6.26c-.14,.55-.32,1.22-.54,1.99l-.29,.98-.29,.98,.06,.05,.46-.56,.46-.56,.95-1.11,4.31-4.9,1.61,1.42Z"/><path class="cls-15" d="M253.11,53.66l-6.84,6.46-1.48-1.56,6.84-6.46-2.24-2.38,1.4-1.32,6.04,6.4-1.4,1.32-2.32-2.46Z"/><path class="cls-15" d="M259.94,58.54l-8.69,7.27-1.38-1.65,8.69-7.27,1.38,1.65Z"/><path class="cls-15" d="M258.93,72.3l-2.88-3.95-2.17,.71-1.34-1.84,11.38-3.62,1.9,2.61-6.91,9.76-1.31-1.81,1.33-1.86Zm.99-1.34l3.62-5.06-5.9,1.92,2.29,3.14Z"/><path class="cls-15" d="M276.34,83.33l-9.84,5.61-1.07-1.87,5.36-3.06c.43-.24,.92-.51,1.48-.79l.76-.38,.75-.38-.03-.06-.81,.17-.81,.17c-.73,.15-1.27,.25-1.63,.31l-6.79,1-.97-1.7,4.26-5.33c.23-.29,.6-.71,1.09-1.25l.56-.61,.55-.61-.03-.06-.69,.44-.7,.45c-.54,.35-1.01,.63-1.41,.86l-5.36,3.06-1.07-1.87,9.84-5.61,1.74,3.04-3.55,4.36c-.25,.3-.61,.72-1.09,1.25l-.56,.61-.55,.61,.04,.06,.8-.18,.8-.17c.67-.15,1.21-.25,1.62-.31l5.56-.88,1.77,3.11Z"/></g></g><path class="cls-2" d="M163.12,65.29c3.87,2.1,8.3,4.87,10.26,6.2s2.93-1.08,1.76-1.96-2.54-2.02-4.64-4.44-3.63-4.8-5.85-8.64c-2.22-3.83-2.99-7.99-3.91-11.7s-1.94-10.53-2.62-18.28c-.69-7.75-1.21-16.42-1.21-16.42,0,0-.2-1.45-1.33-1.45h-1.09c-1.13,0-1.33,1.45-1.33,1.45,0,0-.52,8.68-1.21,16.42s-1.69,14.57-2.62,18.28-1.69,7.87-3.91,11.7-3.75,6.21-5.85,8.64-3.47,3.55-4.64,4.44-.2,3.3,1.76,1.96,6.39-4.1,10.26-6.2,8.15-5.04,8.15-5.04c0,0,4.16,2.95,8.03,5.04Z"/></svg>